<svg width="88" height="80" viewBox="0 0 88 80" fill="none" xmlns="http://www.w3.org/2000/svg">
<path fill-rule="evenodd" clip-rule="evenodd" d="M41.7587 6.80277C46.9198 7.38889 52.1893 2.79365 57.0255 4.68873C61.8223 6.56838 63.6082 12.4069 66.6575 16.5595C69.4757 20.3973 71.5186 24.588 74.4137 28.3682C78.5593 33.781 88.6505 37.0652 87.5104 43.7871C86.3259 50.7711 73.7055 49.2534 69.8623 55.204C66.2962 60.7256 71.722 69.4397 67.6239 74.5788C63.8526 79.3082 56.3989 80.3629 50.3963 79.6152C44.4318 78.8723 41.0008 71.3948 35.0539 70.5219C28.531 69.5645 22.3089 76.1475 15.9117 74.5537C9.7179 73.0106 3.91505 68.1178 1.5719 62.1803C-0.811972 56.1395 1.72347 49.261 3.46102 43.0037C4.8932 37.846 9.88497 34.1944 10.8072 28.9217C11.9248 22.5318 6.35952 15.5267 9.27983 9.73432C11.9878 4.36305 18.875 1.57729 24.8659 1.03655C30.8572 0.495774 35.7815 6.12397 41.7587 6.80277Z" fill="#E1FEF2"/>
<g clip-path="url(#clip0)">
<path d="M54.8995 21.6001V24.414C53.5494 24.5635 52.4626 25.04 51.6885 25.7545C50.7452 26.6252 50.2995 27.8101 50.2995 28.9601C50.2995 30.5908 51.0618 31.842 52.1036 32.5916C53.1453 33.3412 54.3977 33.6933 55.5967 33.9931C56.4817 34.2144 57.5347 34.5477 58.2884 35.0659C59.0422 35.5841 59.4995 36.1668 59.4995 37.2401C59.4995 37.9301 59.2552 38.5852 58.7035 39.0945C58.1518 39.6037 57.2543 40.0001 55.8195 40.0001C53.7342 40.0001 53.0021 39.3761 52.587 38.6704C52.1718 37.9647 52.1395 37.0101 52.1395 36.3201H50.2995C50.2995 37.0101 50.2672 38.3555 51.0021 39.6048C51.6427 40.6938 52.9177 41.5814 54.8995 41.7916V44.6001H56.7395V41.7862C58.0897 41.6367 59.1765 41.1602 59.9505 40.4457C60.8939 39.575 61.3395 38.3901 61.3395 37.2401C61.3395 35.5534 60.4169 34.2961 59.3306 33.5493C58.2444 32.8025 56.9973 32.4458 56.0423 32.2071C54.8982 31.9209 53.8506 31.5823 53.1781 31.0984C52.5057 30.6145 52.1395 30.0893 52.1395 28.9601C52.1395 28.2701 52.3839 27.615 52.9355 27.1057C53.4872 26.5965 54.3848 26.2001 55.8195 26.2001C57.9049 26.2001 58.637 26.8241 59.0521 27.5298C59.4672 28.2355 59.4995 29.1901 59.4995 29.8801H61.3395C61.3395 29.1901 61.3718 27.8447 60.637 26.5954C59.9964 25.5064 58.7213 24.6188 56.7395 24.4086V21.6001H54.8995ZM24.5395 26.2001V28.112C23.497 28.2603 22.6378 28.6537 22.0203 29.2404C21.2288 29.9925 20.8595 31.0104 20.8595 31.9914C20.8595 33.3717 21.4987 34.4626 22.3689 35.1072C23.2391 35.7518 24.2643 36.0431 25.2295 36.2913C25.9298 36.4717 26.7496 36.7417 27.3193 37.1449C27.889 37.548 28.2195 37.97 28.2195 38.8088C28.2195 39.343 28.0364 39.8422 27.632 40.2265C27.2275 40.6108 26.5671 40.9201 25.4595 40.9201C23.8495 40.9201 23.3493 40.4315 23.0391 39.8887C22.7289 39.3459 22.6995 38.6201 22.6995 38.1601H20.8595C20.8595 38.6201 20.8301 39.7343 21.4399 40.8015C21.9534 41.7001 22.9908 42.4679 24.5395 42.69V44.6001H26.3795V42.6882C27.4221 42.5399 28.2813 42.1465 28.8988 41.5598C29.6903 40.8077 30.0595 39.7898 30.0595 38.8088C30.0595 37.3743 29.2854 36.2812 28.383 35.6427C27.4807 35.0041 26.4612 34.7076 25.6895 34.5088C24.7807 34.2751 23.9663 33.9997 23.465 33.6284C22.9637 33.257 22.6995 32.8845 22.6995 31.9914C22.6995 31.4572 22.8827 30.958 23.2871 30.5737C23.6916 30.1894 24.3519 29.8801 25.4595 29.8801C27.0695 29.8801 27.5697 30.3687 27.8799 30.9115C28.1901 31.4543 28.2195 32.1801 28.2195 32.6401H30.0595C30.0595 32.1801 30.089 31.0659 29.4791 29.9987C28.9657 29.1001 27.9282 28.3323 26.3795 28.1102V26.2001H24.5395ZM39.2595 26.2001V28.112C38.217 28.2603 37.3578 28.6537 36.7403 29.2404C35.9488 29.9925 35.5795 31.0104 35.5795 31.9914C35.5795 33.3717 36.2187 34.4626 37.0889 35.1072C37.9591 35.7518 38.9843 36.0431 39.9495 36.2913C40.6498 36.4717 41.4696 36.7417 42.0393 37.1449C42.609 37.548 42.9395 37.97 42.9395 38.8088C42.9395 39.343 42.7564 39.8422 42.352 40.2265C41.9475 40.6108 41.2871 40.9201 40.1795 40.9201C38.5695 40.9201 38.0693 40.4315 37.7591 39.8887C37.4489 39.3459 37.4195 38.6201 37.4195 38.1601H35.5795C35.5795 38.6201 35.5501 39.7343 36.1599 40.8015C36.6734 41.7001 37.7108 42.4679 39.2595 42.69V44.6001H41.0995V42.6882C42.1421 42.5399 43.0013 42.1465 43.6188 41.5598C44.4103 40.8077 44.7795 39.7898 44.7795 38.8088C44.7795 37.3743 44.0054 36.2812 43.103 35.6427C42.2007 35.0041 41.1812 34.7076 40.4095 34.5088C39.5007 34.2751 38.6863 33.9997 38.185 33.6284C37.6837 33.257 37.4195 32.8845 37.4195 31.9914C37.4195 31.4572 37.6027 30.958 38.0071 30.5737C38.4116 30.1894 39.0719 29.8801 40.1795 29.8801C41.7895 29.8801 42.2897 30.3687 42.5999 30.9115C42.9101 31.4543 42.9395 32.1801 42.9395 32.6401H44.7795C44.7795 32.1801 44.809 31.0659 44.1991 29.9987C43.6857 29.1001 42.6482 28.3323 41.0995 28.1102V26.2001H39.2595ZM55.8195 48.2064V50.1201V52.8801H46.3698C46.2085 52.6009 45.9768 52.3689 45.6977 52.2074C45.4186 52.046 45.102 51.9607 44.7795 51.9601C44.4571 51.9607 44.1405 52.046 43.8614 52.2074C43.5823 52.3689 43.3505 52.6009 43.1893 52.8801H34.4116C34.2502 52.6006 34.0181 52.3685 33.7387 52.207C33.4593 52.0455 33.1423 51.9604 32.8195 51.9601C32.4971 51.9607 32.1805 52.046 31.9014 52.2074C31.6223 52.3689 31.3905 52.6009 31.2293 52.8801H22.4516C22.2902 52.6006 22.0581 52.3685 21.7787 52.207C21.4993 52.0455 21.1823 51.9604 20.8595 51.9601C20.3715 51.9601 19.9035 52.154 19.5585 52.499C19.2134 52.8441 19.0195 53.3121 19.0195 53.8001C19.0195 54.2881 19.2134 54.7561 19.5585 55.1012C19.9035 55.4462 20.3715 55.6401 20.8595 55.6401C21.182 55.6395 21.4986 55.5542 21.7777 55.3928C22.0568 55.2313 22.2885 54.9993 22.4498 54.7201H31.2275C31.3889 54.9996 31.6209 55.2317 31.9004 55.3932C32.1798 55.5547 32.4968 55.6398 32.8195 55.6401C33.142 55.6395 33.4586 55.5542 33.7377 55.3928C34.0168 55.2313 34.2485 54.9993 34.4098 54.7201H43.1875C43.3489 54.9996 43.5809 55.2317 43.8604 55.3932C44.1398 55.5547 44.4568 55.6398 44.7795 55.6401C45.1023 55.6398 45.4193 55.5547 45.6987 55.3932C45.9781 55.2317 46.2102 54.9996 46.3716 54.7201H55.8195V59.3938L62.813 53.8001L55.8195 48.2064ZM57.6595 52.0356L59.8661 53.8001L57.6595 55.5646V52.0356Z" fill="#06A863"/>
</g>
<defs>
<clipPath id="clip0">
<rect width="46" height="46" fill="white" transform="translate(18.0996 17)"/>
</clipPath>
</defs>
</svg>
