<svg width="88" height="80" viewBox="0 0 88 80" fill="none" xmlns="http://www.w3.org/2000/svg">
<path fill-rule="evenodd" clip-rule="evenodd" d="M41.9599 6.80277C47.1209 7.38889 52.3904 2.79365 57.2266 4.68873C62.0234 6.56838 63.8093 12.4069 66.8587 16.5595C69.6768 20.3973 71.7198 24.588 74.6149 28.3682C78.7604 33.781 88.8517 37.0652 87.7116 43.7871C86.5271 50.7711 73.9066 49.2534 70.0635 55.204C66.4974 60.7256 71.9231 69.4397 67.8251 74.5788C64.0537 79.3082 56.6001 80.3629 50.5975 79.6152C44.633 78.8723 41.202 71.3948 35.2551 70.5219C28.7322 69.5645 22.5101 76.1475 16.1129 74.5537C9.91907 73.0106 4.11623 68.1178 1.77308 62.1803C-0.6108 56.1395 1.92465 49.261 3.66219 43.0037C5.09437 37.846 10.0861 34.1944 11.0083 28.9217C12.1259 22.5318 6.56069 15.5267 9.48101 9.73432C12.189 4.36305 19.0761 1.57729 25.0671 1.03655C31.0584 0.495774 35.9826 6.12397 41.9599 6.80277Z" fill="#E1FEF2"/>
<g clip-path="url(#clip0)">
<path d="M44.9808 18.8472C44.2729 18.8472 43.5649 19.1131 43.0294 19.6486L35.6694 27.0086C34.5985 28.0795 34.5985 29.8404 35.6694 30.9114C36.5104 31.7523 37.7754 31.9212 38.7996 31.4397L42.6736 35.3137L32.55 44.715C32.4135 44.6323 32.2518 44.5928 32.09 44.5892C31.7774 44.5928 31.4827 44.7545 31.3138 45.0204C31.1449 45.29 31.1269 45.6242 31.2635 45.9081L21.2369 55.2231C19.821 56.5348 19.7779 58.7917 21.1435 60.1537H21.1471C22.5091 61.5194 24.766 61.4798 26.0777 60.0675L35.3927 50.0373C35.7557 50.217 36.1941 50.1344 36.4672 49.8397C36.7439 49.5414 36.7943 49.0994 36.5894 48.7508L45.9871 38.6272L49.8611 42.5012C49.3796 43.5254 49.5485 44.7904 50.3894 45.6314C51.4604 46.7023 53.2213 46.7023 54.2922 45.6314L61.6522 38.2714C62.7232 37.2004 62.7232 35.4395 61.6522 34.3686C61.1168 33.8331 60.4088 33.5636 59.7008 33.5636C59.2947 33.5636 58.8958 33.6642 58.5221 33.8403L47.4605 22.7787C47.9421 21.7545 47.7732 20.4895 46.9322 19.6486C46.3968 19.1131 45.6888 18.8472 44.9808 18.8472ZM44.9808 20.6728C45.2144 20.6728 45.448 20.7662 45.6313 20.9495C45.9979 21.3161 45.9979 21.8839 45.6313 22.2504L38.2713 29.6104C37.9047 29.977 37.3369 29.977 36.9704 29.6104C36.6038 29.2439 36.6038 28.6761 36.9704 28.3095L44.3304 20.9495C44.5136 20.7662 44.7472 20.6728 44.9808 20.6728ZM46.2818 24.2019L48.2799 26.2L42.2208 32.259L40.2227 30.2609L46.2818 24.2019ZM49.5808 27.5009L53.7999 31.72L47.7408 37.779L43.5218 33.56L49.5808 27.5009ZM55.1008 33.0209L57.0989 35.019L51.0399 41.0781L49.0418 39.08L55.1008 33.0209ZM59.7008 35.3964C59.9344 35.3964 60.168 35.4862 60.3513 35.6695C60.7179 36.0361 60.7179 36.6039 60.3513 36.9704L52.9913 44.3304C52.6247 44.697 52.0569 44.697 51.6904 44.3304C51.3238 43.9639 51.3238 43.3961 51.6904 43.0295L59.0504 35.6695C59.2336 35.4862 59.4672 35.3964 59.7008 35.3964ZM43.8883 36.6937L44.6071 37.4125L35.3064 47.4247L33.8761 45.9944L43.8883 36.6937ZM32.5285 47.245L34.0558 48.7723L24.7336 58.8133C24.1119 59.4817 23.0913 59.4997 22.448 58.8564C21.8011 58.2095 21.8191 57.1889 22.4875 56.5708L32.5285 47.245Z" fill="#06A863"/>
</g>
<defs>
<clipPath id="clip0">
<rect width="46" height="46" fill="white" transform="translate(18.3008 17)"/>
</clipPath>
</defs>
</svg>
