<svg width="16" height="16" viewBox="0 0 16 16" fill="none" xmlns="http://www.w3.org/2000/svg">
<path d="M2.66663 0.666571C1.56998 0.666571 0.666626 1.56992 0.666626 2.66657V13.3332C0.666626 14.4379 1.56196 15.3332 2.66663 15.3332H14C14.7366 15.3332 15.3333 14.7366 15.3333 13.9999V4.66657C15.3333 3.9299 14.7366 3.33324 14 3.33324H8.66663H2.66663C2.28994 3.33324 1.99996 3.04326 1.99996 2.66657C1.99996 2.28988 2.28994 1.9999 2.66663 1.9999H12.6666C12.755 2.00115 12.8427 1.98483 12.9247 1.95189C13.0066 1.91895 13.0812 1.87004 13.1442 1.80801C13.2071 1.74598 13.257 1.67207 13.2911 1.59056C13.3252 1.50906 13.3428 1.42159 13.3428 1.33324C13.3428 1.24489 13.3252 1.15742 13.2911 1.07591C13.257 0.994409 13.2071 0.920494 13.1442 0.858464C13.0812 0.796434 13.0066 0.747527 12.9247 0.714585C12.8427 0.681642 12.755 0.665321 12.6666 0.666571H2.66663ZM12.6666 7.9999C13.4033 7.9999 14 8.59657 14 9.33324C14 10.0699 13.4033 10.6666 12.6666 10.6666C11.93 10.6666 11.3333 10.0699 11.3333 9.33324C11.3333 8.59657 11.93 7.9999 12.6666 7.9999Z" fill="#DBDCE1"/>
</svg>
