<svg width="25" height="24" viewBox="0 0 25 24" fill="none" xmlns="http://www.w3.org/2000/svg">
<path d="M12.2531 14.8285L13.6673 16.2427L17.91 12L13.6673 7.7574L12.2531 9.17161L14.0815 11H6.54438V13H14.0815L12.2531 14.8285Z" fill="#06A863"/>
<path fill-rule="evenodd" clip-rule="evenodd" d="M19.9793 19.7782C24.2751 15.4824 24.2751 8.51759 19.9793 4.22183C15.6836 -0.0739417 8.71876 -0.0739417 4.423 4.22183C0.12723 8.51759 0.12723 15.4824 4.423 19.7782C8.71876 24.0739 15.6836 24.0739 19.9793 19.7782ZM18.5651 18.364C22.0799 14.8492 22.0799 9.15076 18.5651 5.63604C15.0504 2.12132 9.35193 2.12132 5.83721 5.63604C2.32249 9.15076 2.32249 14.8492 5.83721 18.364C9.35193 21.8787 15.0504 21.8787 18.5651 18.364Z" fill="#06A863"/>
</svg>
