<svg width="87" height="80" viewBox="0 0 87 80" fill="none" xmlns="http://www.w3.org/2000/svg">
<path fill-rule="evenodd" clip-rule="evenodd" d="M41.1591 6.80277C46.3201 7.38889 51.5897 2.79365 56.4258 4.68873C61.2227 6.56838 63.0085 12.4069 66.0579 16.5595C68.8761 20.3973 70.919 24.588 73.8141 28.3682C77.9596 33.781 88.0509 37.0652 86.9108 43.7871C85.7263 50.7711 73.1059 49.2534 69.2627 55.204C65.6966 60.7256 71.1223 69.4397 67.0243 74.5788C63.253 79.3082 55.7993 80.3629 49.7967 79.6152C43.8322 78.8723 40.4012 71.3948 34.4543 70.5219C27.9314 69.5645 21.7093 76.1475 15.3121 74.5537C9.11829 73.0106 3.31545 68.1178 0.972295 62.1803C-1.41158 56.1395 1.12387 49.261 2.86141 43.0037C4.29359 37.846 9.28536 34.1944 10.2076 28.9217C11.3252 22.5318 5.75991 15.5267 8.68022 9.73432C11.3882 4.36305 18.2753 1.57729 24.2663 1.03655C30.2576 0.495774 35.1818 6.12397 41.1591 6.80277Z" fill="#E1FEF2"/>
<g clip-path="url(#clip0)">
<path d="M25.7648 23.44C25.524 23.4436 25.2976 23.5407 25.1287 23.7096L19.6087 29.2296C19.3679 29.4596 19.2709 29.8046 19.3571 30.1244C19.4398 30.4479 19.6914 30.6994 20.0148 30.7821C20.3346 30.8683 20.6796 30.7713 20.9096 30.5305L24.8592 26.581V46.5119C24.8592 51.0616 28.5895 54.7919 33.1392 54.7919C37.6889 54.7919 41.4192 51.0616 41.4192 46.5119V33.56C41.4192 30.013 44.3121 27.12 47.8592 27.12C51.4062 27.12 54.2992 30.013 54.2992 33.56V53.4874L50.3497 49.5414C50.1772 49.3618 49.94 49.2611 49.6884 49.2611C49.3147 49.2611 48.9804 49.4875 48.8367 49.8361C48.6965 50.1811 48.7792 50.58 49.0487 50.8388L54.5687 56.3588C54.9281 56.7182 55.5103 56.7182 55.8697 56.3588L61.3897 50.8388C61.6304 50.6088 61.7275 50.2674 61.6412 49.9439C61.5586 49.6241 61.307 49.3689 60.9836 49.2863C60.6637 49.2036 60.3187 49.3007 60.0887 49.5414L56.1392 53.4874V33.56C56.1392 29.1254 52.5778 25.5316 48.1898 25.3447C48.082 25.3052 47.9706 25.2836 47.8592 25.28C43.3095 25.28 39.5792 29.0104 39.5792 33.56V46.5119C39.5792 50.0554 36.6862 52.9519 33.1392 52.9519C29.5921 52.9519 26.6992 50.0554 26.6992 46.5119V26.581L30.6487 30.5305C30.8787 30.7713 31.2237 30.8683 31.5436 30.7821C31.867 30.6994 32.1186 30.4479 32.2012 30.1244C32.2875 29.8046 32.1904 29.4596 31.9496 29.2296L26.4296 23.7096C26.2536 23.5335 26.0128 23.4364 25.7648 23.44Z" fill="#06A863"/>
</g>
<defs>
<clipPath id="clip0">
<rect width="46" height="46" fill="white" transform="translate(17.5 17)"/>
</clipPath>
</defs>
</svg>
