<svg width="88" height="80" viewBox="0 0 88 80" fill="none" xmlns="http://www.w3.org/2000/svg">
<path fill-rule="evenodd" clip-rule="evenodd" d="M41.3603 6.80277C46.5213 7.38889 51.7908 2.79365 56.627 4.68873C61.4238 6.56838 63.2097 12.4069 66.259 16.5595C69.0772 20.3973 71.1202 24.588 74.0153 28.3682C78.1608 33.781 88.252 37.0652 87.112 43.7871C85.9275 50.7711 73.307 49.2534 69.4639 55.204C65.8978 60.7256 71.3235 69.4397 67.2255 74.5788C63.4541 79.3082 56.0005 80.3629 49.9979 79.6152C44.0334 78.8723 40.6024 71.3948 34.6555 70.5219C28.1326 69.5645 21.9105 76.1475 15.5133 74.5537C9.31946 73.0106 3.51662 68.1178 1.17347 62.1803C-1.21041 56.1395 1.32504 49.261 3.06258 43.0037C4.49476 37.846 9.48653 34.1944 10.4087 28.9217C11.5263 22.5318 5.96108 15.5267 8.8814 9.73432C11.5894 4.36305 18.4765 1.57729 24.4675 1.03655C30.4588 0.495774 35.383 6.12397 41.3603 6.80277Z" fill="#E1FEF2"/>
<g clip-path="url(#clip0)">
<path d="M42.541 19.3574L41.851 20.1049L34.491 28.3562L33.111 29.8799H38.861V33.5599H22.301V36.3199H19.541V60.2399H59.101V57.4799H62.781V33.5599H46.221V29.8799H51.971L50.591 28.3562L43.231 20.1049L42.541 19.3574ZM42.541 22.1174L47.8598 28.0399H44.381V33.5599H40.701V28.0399H37.2223L42.541 22.1174ZM24.141 35.3999H26.2685C26.0709 35.7629 25.9235 36.1115 25.8085 36.3774C25.6791 36.6721 25.539 36.877 25.5785 36.8374C25.618 36.7979 25.4312 36.9237 25.1473 37.0387C24.8705 37.1501 24.5184 37.2723 24.141 37.4412V35.3999ZM29.2585 35.3999H55.8235C56.6357 35.3999 56.8405 35.6802 57.146 36.2049C57.297 36.4673 57.4371 36.7979 57.5773 37.1249C57.7174 37.452 57.8288 37.779 58.181 38.1312C58.5296 38.4798 58.9034 38.5984 59.2448 38.7349C59.5862 38.8715 59.906 39.008 60.1935 39.1374C60.481 39.2668 60.7218 39.407 60.826 39.5112C60.9302 39.6154 60.941 39.6405 60.941 39.7699V51.2699C60.941 51.3993 60.9302 51.4245 60.826 51.5287C60.7218 51.6329 60.481 51.773 60.1935 51.9024C59.906 52.0318 59.5862 52.1684 59.2448 52.3049C58.9034 52.4415 58.5296 52.5601 58.181 52.9087V52.9374C57.8468 53.2824 57.7138 53.5951 57.5773 53.9149C57.4371 54.242 57.297 54.5726 57.146 54.8349C56.8405 55.3596 56.6357 55.6399 55.8235 55.6399H29.2585C28.6476 55.6399 28.3888 55.4782 28.166 55.1799C28.0905 55.0793 28.0115 54.9643 27.936 54.8349C27.7851 54.5726 27.6449 54.2384 27.5048 53.9149C27.3646 53.5915 27.2532 53.2609 26.901 52.9087C26.5524 52.5601 26.1787 52.4415 25.8373 52.3049C25.4959 52.1684 25.176 52.0318 24.8885 51.9024C24.601 51.773 24.3602 51.6329 24.256 51.5287C24.1518 51.4245 24.141 51.3993 24.141 51.2699V39.7699C24.141 39.6405 24.1518 39.6154 24.256 39.5112C24.3602 39.407 24.601 39.2668 24.8885 39.1374C25.176 39.008 25.4959 38.8715 25.8373 38.7349C26.1787 38.5984 26.5524 38.4798 26.901 38.1312C27.2532 37.779 27.3646 37.4484 27.5048 37.1249C27.6449 36.8015 27.7851 36.4673 27.936 36.2049C28.2415 35.6802 28.4463 35.3999 29.2585 35.3999ZM58.8135 35.3999H60.941V37.4412C60.5637 37.2723 60.2115 37.1501 59.9348 37.0387C59.6545 36.9237 59.464 36.7979 59.5035 36.8374C59.543 36.877 59.4029 36.6721 59.2735 36.3774C59.1585 36.1115 59.0112 35.7629 58.8135 35.3999ZM42.541 36.3199C37.9159 36.3199 34.261 40.5066 34.261 45.5199C34.261 50.5332 37.9159 54.7199 42.541 54.7199C47.1662 54.7199 50.821 50.5332 50.821 45.5199C50.821 40.5066 47.1662 36.3199 42.541 36.3199ZM21.381 38.1599H22.301V57.4799H57.261V58.3999H21.381V38.1599ZM42.541 38.1599C46.0449 38.1599 48.981 41.3907 48.981 45.5199C48.981 49.6491 46.0449 52.8799 42.541 52.8799C39.0371 52.8799 36.101 49.6491 36.101 45.5199C36.101 41.3907 39.0371 38.1599 42.541 38.1599ZM29.201 42.7599C27.9432 42.7599 26.901 43.8021 26.901 45.0599C26.901 46.3177 27.9432 47.3599 29.201 47.3599C30.4588 47.3599 31.501 46.3177 31.501 45.0599C31.501 43.8021 30.4588 42.7599 29.201 42.7599ZM55.881 42.7599C54.6232 42.7599 53.581 43.8021 53.581 45.0599C53.581 46.3177 54.6232 47.3599 55.881 47.3599C57.1388 47.3599 58.181 46.3177 58.181 45.0599C58.181 43.8021 57.1388 42.7599 55.881 42.7599ZM29.201 44.5999C29.467 44.5999 29.661 44.794 29.661 45.0599C29.661 45.3259 29.467 45.5199 29.201 45.5199C28.9351 45.5199 28.741 45.3259 28.741 45.0599C28.741 44.794 28.9351 44.5999 29.201 44.5999ZM55.881 44.5999C56.147 44.5999 56.341 44.794 56.341 45.0599C56.341 45.3259 56.147 45.5199 55.881 45.5199C55.6151 45.5199 55.421 45.3259 55.421 45.0599C55.421 44.794 55.6151 44.5999 55.881 44.5999ZM24.141 53.5987C24.5184 53.7676 24.8705 53.8898 25.1473 54.0012C25.4312 54.1162 25.618 54.242 25.5785 54.2024C25.539 54.1629 25.6791 54.3677 25.8085 54.6624C25.9235 54.9284 26.0709 55.277 26.2685 55.6399H24.141V53.5987ZM60.941 53.5987V55.6399H58.8135C58.8998 55.4818 58.9752 55.3273 59.0435 55.1799C59.1262 54.9966 59.2088 54.8098 59.2735 54.6624C59.4029 54.3677 59.543 54.1629 59.5035 54.2024C59.464 54.242 59.6545 54.1162 59.9348 54.0012C60.2115 53.8898 60.5637 53.7676 60.941 53.5987Z" fill="#06A863"/>
</g>
<defs>
<clipPath id="clip0">
<rect width="46" height="46" fill="white" transform="translate(17.7012 17)"/>
</clipPath>
</defs>
</svg>
