<svg width="88" height="80" viewBox="0 0 88 80" fill="none" xmlns="http://www.w3.org/2000/svg">
<path fill-rule="evenodd" clip-rule="evenodd" d="M41.5595 6.80277C46.7205 7.38889 51.9901 2.79365 56.8262 4.68873C61.623 6.56838 63.4089 12.4069 66.4583 16.5595C69.2764 20.3973 71.3194 24.588 74.2145 28.3682C78.36 33.781 88.4513 37.0652 87.3112 43.7871C86.1267 50.7711 73.5062 49.2534 69.6631 55.204C66.097 60.7256 71.5227 69.4397 67.4247 74.5788C63.6534 79.3082 56.1997 80.3629 50.1971 79.6152C44.2326 78.8723 40.8016 71.3948 34.8547 70.5219C28.3318 69.5645 22.1097 76.1475 15.7125 74.5537C9.51868 73.0106 3.71584 68.1178 1.37269 62.1803C-1.01119 56.1395 1.52426 49.261 3.2618 43.0037C4.69398 37.846 9.68575 34.1944 10.608 28.9217C11.7256 22.5318 6.1603 15.5267 9.08062 9.73432C11.7886 4.36305 18.6757 1.57729 24.6667 1.03655C30.658 0.495774 35.5822 6.12397 41.5595 6.80277Z" fill="#E1FEF2"/>
<g clip-path="url(#clip0)">
<g clip-path="url(#clip1)">
<path d="M40.8997 61.4407C52.741 61.4407 62.3403 51.8413 62.3403 40C62.3403 28.1587 52.741 18.5593 40.8997 18.5593C29.0583 18.5593 19.459 28.1587 19.459 40C19.459 51.8413 29.0583 61.4407 40.8997 61.4407Z" stroke="#06A863" stroke-width="1.76494" stroke-miterlimit="10"/>
<path d="M40.4768 51.9641C42.6687 52.0218 46.1296 50.8681 46.1873 48.2724C46.418 40.8891 32.7474 43.0233 33.0357 34.4864C33.1511 30.6217 37.8233 28.1413 41.688 28.3144" stroke="#06A863" stroke-width="1.76494" stroke-miterlimit="10"/>
<path d="M50.0515 32.4674C48.0903 30.1602 45.8407 28.545 42.5528 28.3143C40.3609 28.1413 37.2461 29.1796 37.0154 31.7752C36.3808 39.0432 50.7437 37.7165 49.9938 46.2535C49.6477 50.1182 44.514 52.0794 40.4763 51.964C37.1884 51.8486 34.3619 50.3489 32.0547 47.8109" stroke="#06A863" stroke-width="1.76494" stroke-miterlimit="10"/>
</g>
</g>
<defs>
<clipPath id="clip0">
<rect width="46" height="46" fill="white" transform="translate(17.9004 17)"/>
</clipPath>
<clipPath id="clip1">
<rect width="46" height="46" fill="white" transform="translate(17.9004 17)"/>
</clipPath>
</defs>
</svg>
