<svg width="36" height="36" viewBox="0 0 36 36" fill="none" xmlns="http://www.w3.org/2000/svg">
    <path d="M28.2472 32.9999C25.6002 32.9999 23.4469 30.8466 23.4469 28.1996V19.362C27.8176 19.024 30.9797 18.0982 33.0476 16.5866V28.1996C33.0476 30.8466 30.8942 32.9999 28.2472 32.9999ZM23.4469 7.80022C23.4469 5.15321 25.6002 2.9999 28.2472 2.9999C30.8942 2.9999 33.0476 5.15321 33.0476 7.80022V10.7001C33.0006 11.7199 32.7793 12.7677 31.8815 13.6698C30.8305 14.7242 28.5037 15.9139 23.4469 16.3413V7.80022ZM12.616 28.1996C12.616 30.8466 10.4626 32.9999 7.81563 32.9999C5.16862 32.9999 3.01531 30.8466 3.01531 28.1996V25.5084C3.06344 24.5282 3.29899 23.4591 4.26926 22.4823C5.36082 21.3817 7.68749 20.1453 12.616 19.6828V28.1996ZM7.81563 2.9999C10.4626 2.9999 12.616 5.15321 12.616 7.80022V16.6646C8.27798 17.0368 5.11363 18.0248 3.01531 19.6325V7.80022C3.01531 5.15321 5.16862 2.9999 7.81563 2.9999ZM36.0548 9.50968L36.0475 8.99987V7.80022C36.0475 3.49943 32.548 0 28.2472 0C23.9464 0 20.447 3.49943 20.447 7.80022V16.4854C19.6886 16.5008 16.4085 16.4965 15.6159 16.5147V7.80022C15.6159 3.49943 12.1164 0 7.81563 0C3.51483 0 0.0152342 3.49943 0.0152342 7.80022V25.3594C-0.00909116 25.8359 0.00101383 26.2615 0.0094078 26.6118L0.0152342 27V28.1996C0.0152342 32.5004 3.51483 36 7.81563 36C12.1164 36 15.6159 32.5004 15.6159 28.1996V19.5204C16.3824 19.5016 19.6638 19.5074 20.447 19.4935V28.1996C20.447 32.5004 23.9464 36 28.2472 36C32.548 36 36.0475 32.5004 36.0475 28.1996V10.8625C36.0725 10.3609 36.0634 9.90162 36.0548 9.50968Z" fill="#232323"></path>
</svg>