<svg width="143" height="36" viewBox="0 0 143 36" fill="none" xmlns="http://www.w3.org/2000/svg">
    <path d="M28.2472 32.9999C25.6002 32.9999 23.4469 30.8466 23.4469 28.1996V19.362C27.8176 19.024 30.9797 18.0982 33.0476 16.5866V28.1996C33.0476 30.8466 30.8942 32.9999 28.2472 32.9999ZM23.4469 7.80022C23.4469 5.15321 25.6002 2.9999 28.2472 2.9999C30.8942 2.9999 33.0476 5.15321 33.0476 7.80022V10.7001C33.0006 11.7199 32.7793 12.7677 31.8815 13.6698C30.8305 14.7242 28.5037 15.9139 23.4469 16.3413V7.80022ZM12.616 28.1996C12.616 30.8466 10.4626 32.9999 7.81563 32.9999C5.16862 32.9999 3.01531 30.8466 3.01531 28.1996V25.5084C3.06344 24.5282 3.29899 23.4591 4.26926 22.4823C5.36082 21.3817 7.68749 20.1453 12.616 19.6828V28.1996ZM7.81563 2.9999C10.4626 2.9999 12.616 5.15321 12.616 7.80022V16.6646C8.27798 17.0368 5.11363 18.0248 3.01531 19.6325V7.80022C3.01531 5.15321 5.16862 2.9999 7.81563 2.9999ZM36.0548 9.50968L36.0475 8.99987V7.80022C36.0475 3.49943 32.548 0 28.2472 0C23.9464 0 20.447 3.49943 20.447 7.80022V16.4854C19.6886 16.5008 16.4085 16.4965 15.6159 16.5147V7.80022C15.6159 3.49943 12.1164 0 7.81563 0C3.51483 0 0.0152342 3.49943 0.0152342 7.80022V25.3594C-0.00909116 25.8359 0.00101383 26.2615 0.0094078 26.6118L0.0152342 27V28.1996C0.0152342 32.5004 3.51483 36 7.81563 36C12.1164 36 15.6159 32.5004 15.6159 28.1996V19.5204C16.3824 19.5016 19.6638 19.5074 20.447 19.4935V28.1996C20.447 32.5004 23.9464 36 28.2472 36C32.548 36 36.0475 32.5004 36.0475 28.1996V10.8625C36.0725 10.3609 36.0634 9.90162 36.0548 9.50968Z" fill="white"></path>
    <path d="M50.1704 26.2757V9.74503C50.1704 9.65047 50.2472 9.57372 50.3417 9.57372H52.8637C52.9582 9.57372 53.035 9.65047 53.035 9.74503V16.675H61.6844V9.74503C61.6844 9.65047 61.7611 9.57372 61.8557 9.57372H64.3776C64.4724 9.57372 64.5489 9.65047 64.5489 9.74503V26.2757C64.5489 26.3702 64.4724 26.447 64.3776 26.447H61.8557C61.7611 26.447 61.6844 26.3702 61.6844 26.2757V19.338H53.035V26.2757C53.035 26.3702 52.9582 26.447 52.8637 26.447H50.3417C50.2472 26.447 50.1704 26.3702 50.1704 26.2757Z" fill="white"></path>
    <path d="M71.9272 17.5398C70.025 17.5398 68.8389 18.95 68.8389 20.9195C68.8389 22.8884 70.0026 24.2764 71.9048 24.2764C73.8069 24.2764 75.038 22.9111 75.038 20.9195C75.038 18.9272 73.8294 17.5398 71.9272 17.5398ZM77.8131 15.5627V26.2757C77.8131 26.3702 77.7364 26.447 77.6418 26.447H75.4162C75.3283 26.447 75.2548 26.3807 75.2457 26.2933L75.0825 24.724C74.3889 25.8649 73.0684 26.7377 71.2781 26.7377C67.9884 26.7377 66.1086 24.2315 66.1086 20.7848C66.1086 17.3161 68.1897 15.0557 71.3006 15.0557C72.9566 15.0557 74.5007 15.7719 75.1723 17.0923L75.3144 15.547C75.3225 15.4588 75.3965 15.3914 75.4851 15.3914H77.6418C77.7364 15.3914 77.8131 15.468 77.8131 15.5627Z" fill="white"></path>
    <path d="M86.612 17.7041C86.612 17.7987 86.5352 17.8754 86.4407 17.8754H85.605C83.6356 17.8754 82.4046 18.9272 82.4046 21.0763V26.2757C82.4046 26.3703 82.3278 26.447 82.2333 26.447H79.8456C79.7511 26.447 79.6743 26.3703 79.6743 26.2757V15.5854C79.6743 15.4908 79.7511 15.4141 79.8456 15.4141H82.0926C82.1808 15.4141 82.2547 15.4811 82.2632 15.569L82.4046 17.0252C82.8745 15.9287 83.9266 15.2388 85.4034 15.2388C85.7453 15.2388 86.0873 15.2354 86.4777 15.3163C86.5561 15.3325 86.612 15.4042 86.612 15.4843V17.7041Z" fill="white"></path>
    <path d="M88.0286 26.2757V15.5627C88.0286 15.468 88.1053 15.3914 88.1999 15.3914H90.3907C90.4741 15.3914 90.5454 15.4514 90.5596 15.5336L90.7588 16.6896C91.3185 15.7719 92.4373 15.0557 94.0263 15.0557C95.7047 15.0557 96.8684 15.8837 97.4502 17.1593C98.01 15.8837 99.308 15.0557 100.986 15.0557C103.672 15.0557 105.149 16.667 105.149 19.2186V26.2757C105.149 26.3702 105.072 26.447 104.977 26.447H102.612C102.517 26.447 102.441 26.3702 102.441 26.2757V19.9348C102.441 18.3458 101.591 17.5177 100.292 17.5177C98.9722 17.5177 97.9651 18.3679 97.9651 20.1806V26.2757C97.9651 26.3702 97.8884 26.447 97.7938 26.447H95.4062C95.3116 26.447 95.2349 26.3702 95.2349 26.2757V19.912C95.2349 18.3679 94.4068 17.5398 93.1088 17.5398C91.8108 17.5398 90.7588 18.3906 90.7588 20.1806V26.2757C90.7588 26.3702 90.6821 26.447 90.5875 26.447H88.1999C88.1053 26.447 88.0286 26.3702 88.0286 26.2757Z" fill="white"></path>
    <path d="M112.402 24.2764C114.281 24.2764 115.58 22.9111 115.58 20.8967C115.58 18.8829 114.281 17.5177 112.402 17.5177C110.522 17.5177 109.224 18.8829 109.224 20.8967C109.224 22.9111 110.522 24.2764 112.402 24.2764ZM112.402 15.0785C115.826 15.0785 118.31 17.4506 118.31 20.8967C118.31 24.3434 115.826 26.7156 112.402 26.7156C108.978 26.7156 106.494 24.3434 106.494 20.8967C106.494 17.4506 108.978 15.0785 112.402 15.0785Z" fill="white"></path>
    <path d="M119.736 26.2757V15.5627C119.736 15.468 119.813 15.3914 119.908 15.3914H122.119C122.203 15.3914 122.275 15.4529 122.288 15.5362L122.489 16.8237C123.183 15.7049 124.526 15.0557 126.025 15.0557C128.8 15.0557 130.232 16.7793 130.232 19.6439V26.2757C130.232 26.3702 130.155 26.447 130.061 26.447H127.673C127.579 26.447 127.502 26.3702 127.502 26.2757V20.2925C127.502 18.4353 126.585 17.5398 125.175 17.5398C123.496 17.5398 122.467 18.7034 122.467 20.4941V26.2757C122.467 26.3702 122.39 26.447 122.295 26.447H119.908C119.813 26.447 119.736 26.3702 119.736 26.2757Z" fill="white"></path>
    <path d="M142.618 15.3914H140.083C140.012 15.3914 139.949 15.4351 139.923 15.5012L136.689 23.89L133.574 15.5055C133.55 15.4371 133.486 15.3914 133.413 15.3914H130.811C130.691 15.3914 130.608 15.5123 130.652 15.6245L134.627 25.8943C134.756 26.2275 135.076 26.4469 135.434 26.4469H135.703L133.737 31.51C133.694 31.6222 133.776 31.7428 133.897 31.7428H136.395C136.466 31.7428 136.53 31.6983 136.555 31.6311L142.777 15.6264C142.822 15.5139 142.739 15.3914 142.618 15.3914Z" fill="white"></path>
</svg>