<svg width="30" height="30" viewBox="0 0 30 30" fill="none" xmlns="http://www.w3.org/2000/svg">
<path d="M23.5922 0.000266202C21.8902 0.0355957 20.2654 0.716046 19.0482 1.90335C17.8309 3.09066 17.1125 4.69575 17.0388 6.39246V13.511C16.4563 13.511 15.7282 13.6563 15 13.6563C14.3171 13.627 13.633 13.6757 12.9612 13.8016V6.39246C12.9381 4.67907 12.2357 3.04454 11.0075 1.84657C9.77929 0.648602 8.12542 -0.0152561 6.40777 0.000266202C4.72112 0.0408272 3.11479 0.727308 1.9218 1.9174C0.728815 3.10749 0.0406598 4.70991 0 6.39246V23.5352C0 25.2497 0.682774 26.8941 1.89812 28.1065C3.11346 29.3189 4.76183 30 6.48058 30C8.19934 30 9.8477 29.3189 11.063 28.1065C12.2784 26.8941 12.9612 25.2497 12.9612 23.5352V16.4166C13.5437 16.4166 14.2718 16.2713 15 16.2713C15.6829 16.3007 16.367 16.2519 17.0388 16.126V23.3899C17.0388 25.1045 17.7216 26.7488 18.937 27.9612C20.1523 29.1736 21.8007 29.8547 23.5194 29.8547C25.2382 29.8547 26.8865 29.1736 28.1019 27.9612C29.3172 26.7488 30 25.1045 30 23.3899V6.39246C29.9848 4.70184 29.3048 3.08475 28.1064 1.88926C26.908 0.693758 25.287 0.0154296 23.5922 0.000266202ZM6.5534 2.61525C7.05172 2.61139 7.54583 2.70645 8.00697 2.8949C8.46811 3.08335 8.88706 3.36143 9.23944 3.71295C9.59181 4.06447 9.87057 4.4824 10.0595 4.94242C10.2484 5.40244 10.3437 5.89535 10.3398 6.39246V13.9469C8.43779 14.2572 6.57989 14.7937 4.80582 15.5449C4.04653 15.9267 3.3164 16.3638 2.62136 16.8524V6.39246C2.67307 5.38235 3.1083 4.42976 3.83862 3.72819C4.56895 3.02663 5.5396 2.6287 6.5534 2.61525ZM10.3398 23.5352C10.3437 24.0323 10.2484 24.5252 10.0595 24.9852C9.87057 25.4452 9.59181 25.8632 9.23944 26.2147C8.88706 26.5662 8.46811 26.8443 8.00697 27.0327C7.54583 27.2212 7.05172 27.3162 6.5534 27.3124C5.55502 27.2938 4.60274 26.8898 3.89666 26.1855C3.19057 25.4811 2.78566 24.5311 2.76699 23.5352V21.7918C2.87668 20.9203 3.2379 20.0992 3.8067 19.4287C4.3755 18.7581 5.12737 18.2668 5.97087 18.0146C7.42714 17.4265 8.93985 16.9884 10.4854 16.7071L10.3398 23.5352ZM23.5922 27.3124C23.0939 27.3162 22.5998 27.2212 22.1387 27.0327C21.6775 26.8443 21.2586 26.5662 20.9062 26.2147C20.5538 25.8632 20.2751 25.4452 20.0861 24.9852C19.8972 24.5252 19.8019 24.0323 19.8058 23.5352V15.9808C21.7078 15.6704 23.5657 15.1339 25.3398 14.3827C26.0991 14.0009 26.8292 13.5639 27.5243 13.0752V23.5352C27.476 24.5465 27.0418 25.5011 26.3108 26.2033C25.5797 26.9056 24.6071 27.3024 23.5922 27.3124ZM24.1748 11.913C22.7185 12.5011 21.2058 12.9393 19.6602 13.2205V6.39246C19.6563 5.89535 19.7516 5.40244 19.9405 4.94242C20.1294 4.4824 20.4082 4.06447 20.7606 3.71295C21.1129 3.36143 21.5319 3.08335 21.993 2.8949C22.4542 2.70645 22.9483 2.61139 23.4466 2.61525C24.445 2.63388 25.3973 3.03781 26.1033 3.74217C26.8094 4.44654 27.2143 5.39651 27.233 6.39246V8.13579C27.3786 9.58856 26.2136 11.0413 24.1748 11.913Z" fill="#1F5AE2"/>
</svg>
