<svg width="250" height="272" viewBox="0 0 250 272" fill="none" xmlns="http://www.w3.org/2000/svg">
<path d="M254.945 0C216.305 0 184.89 31.4843 184.89 70.1879V148.043C177.665 148.403 170.445 148.763 162.476 148.763C154.891 148.763 147.312 149.129 140.063 149.488V70.1879C139.39 31.4843 107.61 0.359787 68.9696 1.08526C31.0549 1.44504 0.719601 32.2098 0 70.1879V255.861C0.719601 294.589 32.5 325.713 71.1402 324.988C89.3579 324.662 106.736 317.27 119.605 304.372C132.474 291.474 139.827 274.079 140.11 255.861V178.053C147.335 177.693 154.555 177.334 162.524 177.334C170.109 177.334 177.688 176.968 184.937 176.608V255.861C185.657 294.589 217.437 325.713 256.078 324.988C274.287 324.65 291.653 317.253 304.512 304.356C317.371 291.459 324.717 274.071 325 255.861V70.1879C325 31.4843 293.585 0 254.945 0ZM70.0549 28.5883C92.8049 28.5883 111.22 47.0495 111.585 69.8753V152.001C91.0482 154.942 71.0067 160.662 52.0118 169.005C43.7965 172.67 36.0401 177.286 28.902 182.76V70.1879C28.902 47.0495 47.3049 28.5883 70.0549 28.5883ZM111.585 255.502C111.596 266.527 107.227 277.106 99.4388 284.91C91.6505 292.715 81.0809 297.106 70.0549 297.119C47.3049 297.119 28.902 278.664 28.902 255.502V237.046C28.902 220.762 41.8784 204.837 63.5667 195.429C78.9925 188.926 95.1053 184.191 111.597 181.315L111.585 255.502ZM254.945 297.119C232.195 297.119 213.78 278.664 213.415 255.861V173.352C233.951 170.407 253.993 164.684 272.988 156.342C281.205 152.68 288.961 148.064 296.098 142.588V255.502C296.098 278.664 277.695 297.119 254.945 297.119ZM261.433 130.284C246.007 136.785 229.894 141.519 213.403 144.398V70.1879C213.392 59.1617 217.761 48.5826 225.549 40.7771C233.337 32.9716 243.907 28.5788 254.933 28.5647C277.695 28.5883 296.098 47.0495 296.098 70.1879V88.6432C296.098 104.952 283.122 120.511 261.445 130.284H261.433Z" fill="url(#paint0_linear_251_1930)"/>
<path d="M254.945 0C216.305 0 184.89 31.4843 184.89 70.1879V148.043C177.665 148.403 170.445 148.763 162.476 148.763C154.891 148.763 147.312 149.129 140.063 149.488V70.1879C139.39 31.4843 107.61 0.359787 68.9696 1.08526C31.0549 1.44504 0.719601 32.2098 0 70.1879V255.861C0.719601 294.589 32.5 325.713 71.1402 324.988C89.3579 324.662 106.736 317.27 119.605 304.372C132.474 291.474 139.827 274.079 140.11 255.861V178.053C147.335 177.693 154.555 177.334 162.524 177.334C170.109 177.334 177.688 176.968 184.937 176.608V255.861C185.657 294.589 217.437 325.713 256.078 324.988C274.287 324.65 291.653 317.253 304.512 304.356C317.371 291.459 324.717 274.071 325 255.861V70.1879C325 31.4843 293.585 0 254.945 0ZM70.0549 28.5883C92.8049 28.5883 111.22 47.0495 111.585 69.8753V152.001C91.0482 154.942 71.0067 160.662 52.0118 169.005C43.7965 172.67 36.0401 177.286 28.902 182.76V70.1879C28.902 47.0495 47.3049 28.5883 70.0549 28.5883ZM111.585 255.502C111.596 266.527 107.227 277.106 99.4388 284.91C91.6505 292.715 81.0809 297.106 70.0549 297.119C47.3049 297.119 28.902 278.664 28.902 255.502V237.046C28.902 220.762 41.8784 204.837 63.5667 195.429C78.9925 188.926 95.1053 184.191 111.597 181.315L111.585 255.502ZM254.945 297.119C232.195 297.119 213.78 278.664 213.415 255.861V173.352C233.951 170.407 253.993 164.684 272.988 156.342C281.205 152.68 288.961 148.064 296.098 142.588V255.502C296.098 278.664 277.695 297.119 254.945 297.119ZM261.433 130.284C246.007 136.785 229.894 141.519 213.403 144.398V70.1879C213.392 59.1617 217.761 48.5826 225.549 40.7771C233.337 32.9716 243.907 28.5788 254.933 28.5647C277.695 28.5883 296.098 47.0495 296.098 70.1879V88.6432C296.098 104.952 283.122 120.511 261.445 130.284H261.433Z" fill="#232323"/>
</svg>
