<svg width="551" height="421" viewBox="0 0 551 421" fill="none" xmlns="http://www.w3.org/2000/svg">
<g opacity="0.2" clip-path="url(#clip0)">
<path d="M432.229 0C366.721 0 313.458 53.382 313.458 119.036V250.957C301.213 251.57 288.969 252.184 275.5 252.184C262.643 252.184 249.787 252.797 237.542 253.411V119.036C236.318 53.382 182.442 0.613586 116.934 1.84076C52.6511 2.45434 1.22444 54.6091 0 119.036V433.805C1.22444 499.459 55.1 552.227 120.608 551C184.891 549.773 236.318 498.232 237.542 433.805V301.884C249.787 301.271 262.031 300.657 275.5 300.657C288.357 300.657 301.213 300.043 313.458 299.43V433.805C314.682 499.459 368.558 552.227 434.066 551C498.349 549.773 549.776 498.232 551 433.805V119.036C551 53.382 497.737 0 432.229 0ZM118.771 48.4733C157.341 48.4733 188.564 79.7661 189.177 118.422V257.706C154.28 262.615 120.608 272.432 88.16 286.544C74.0789 292.68 61.2222 300.657 48.9778 309.861V119.036C48.9778 79.7661 80.2011 48.4733 118.771 48.4733ZM189.177 433.191C189.177 471.847 157.953 503.754 118.771 503.754C80.2011 503.754 48.9778 472.461 48.9778 433.191V401.899C48.9778 374.287 71.0178 347.289 107.751 331.336C134.077 320.292 161.014 312.315 189.177 307.406V433.191ZM432.229 503.754C393.659 503.754 362.436 472.461 361.823 433.805V293.908C396.72 288.999 430.392 279.181 462.84 265.069C476.921 258.933 489.778 250.957 502.022 241.753V433.191C502.022 472.461 470.799 503.754 432.229 503.754ZM443.249 220.891C416.923 231.935 389.986 239.912 361.823 244.821V119.036C361.823 80.3797 393.047 48.4733 432.229 48.4733C470.799 48.4733 502.022 79.7661 502.022 119.036V150.328C502.022 177.94 479.982 204.324 443.249 220.891Z" fill="url(#paint0_linear)"/>
</g>
<defs>
<linearGradient id="paint0_linear" x1="35.5713" y1="516.586" x2="517.282" y2="35.946" gradientUnits="userSpaceOnUse">
<stop stop-color="#00ADE8"/>
<stop offset="1" stop-color="white" stop-opacity="0"/>
</linearGradient>
<clipPath id="clip0">
<rect width="551" height="551" fill="white"/>
</clipPath>
</defs>
</svg>
