<svg version="1.2" baseProfile="tiny-ps" xmlns="http://www.w3.org/2000/svg" viewBox="0 0 20 20" width="20" height="20">
	<title>one-svg</title>
	<defs>
		<linearGradient id="grd1" gradientUnits="userSpaceOnUse"  x1="2.025" y1="18.626" x2="18.641" y2="2.01">
			<stop offset="0" stop-color="#00ade8"  />
			<stop offset="1" stop-color="#69fabc"  />
		</linearGradient>
	</defs>
	<style>
		tspan { white-space:pre }
		.shp0 { fill: url(#grd1) } 
		.txt1 { font-size: 14px;fill: #2f42ab;font-weight: 900;font-family: "SourceHanSansSC-Heavy", "Source Han Sans SC" } 
	</style>
	<path id="Layer" fill-rule="evenodd" class="shp0" d="M19.84 4.89L19.84 15.77C19.79 17.99 18.02 19.77 15.79 19.81C13.53 19.86 11.67 18.04 11.62 15.77L11.62 11.14C11.2 11.16 10.76 11.18 10.31 11.18C9.85 11.18 9.42 11.2 9 11.22L9 15.75C8.96 17.97 7.18 19.75 4.96 19.79C2.69 19.84 0.83 18.02 0.79 15.75L0.79 4.89C0.83 2.67 2.61 0.89 4.83 0.85C7.1 0.81 8.96 2.63 9 4.89L9 9.55C9.42 9.53 9.87 9.51 10.31 9.51C10.78 9.51 11.2 9.49 11.62 9.47L11.62 4.92C11.62 2.65 13.47 0.81 15.73 0.81C17.99 0.81 19.84 2.63 19.84 4.89ZM2.48 4.89L2.48 11.52C2.9 11.2 3.35 10.93 3.84 10.71C4.96 10.23 6.12 9.89 7.33 9.72L7.33 4.89C7.31 3.56 6.23 2.48 4.89 2.48C3.56 2.48 2.48 3.56 2.48 4.89ZM7.31 15.75L7.31 11.41C6.33 11.58 5.4 11.86 4.49 12.24C3.22 12.79 2.46 13.72 2.46 14.67L2.46 15.75C2.46 17.11 3.56 18.19 4.89 18.19C6.25 18.19 7.33 17.08 7.33 15.75L7.31 15.75ZM18.14 15.75L18.14 9.15C17.72 9.47 17.28 9.74 16.79 9.95C15.67 10.44 14.5 10.78 13.3 10.95L13.3 15.77C13.32 17.11 14.4 18.19 15.73 18.19C17.06 18.19 18.14 17.08 18.14 15.75ZM18.16 5.97L18.16 4.89C18.16 3.54 17.06 2.46 15.73 2.46C14.38 2.46 13.3 3.56 13.3 4.89L13.3 9.25C14.27 9.08 15.2 8.81 16.11 8.43C17.4 7.86 18.16 6.95 18.16 5.97Z" />
	<text id="Text layer 1" style="transform: matrix(1,0,0,1,4.945,15.665)" >
		<tspan x="0" y="0" class="txt1">G</tspan><tspan  y="0" class="txt1">
</tspan>
	</text>
</svg>