<svg width="35" height="21" viewBox="0 0 35 21" fill="none" xmlns="http://www.w3.org/2000/svg">
<path fill-rule="evenodd" clip-rule="evenodd" d="M17.6468 3.22678C16.3641 3.22678 15.3568 4.24499 15.3568 5.46116C15.3568 6.67734 16.3641 7.69555 17.6468 7.69555C18.9294 7.69555 19.9367 6.67734 19.9367 5.46116C19.9367 4.24499 18.9294 3.22678 17.6468 3.22678ZM13.0039 5.46116C13.0039 2.90981 15.1006 0.87384 17.6468 0.87384C20.193 0.87384 22.2896 2.90981 22.2896 5.46116C22.2896 8.01251 20.193 10.0485 17.6468 10.0485C15.1006 10.0485 13.0039 8.01251 13.0039 5.46116Z" fill="#0066B3"/>
<path fill-rule="evenodd" clip-rule="evenodd" d="M17.647 13.7693C14.1938 13.7693 11.5756 16.1859 11.5756 18.9494C11.5756 19.5992 11.0489 20.1259 10.3991 20.1259C9.74938 20.1259 9.22266 19.5992 9.22266 18.9494C9.22266 14.5811 13.2221 11.4164 17.647 11.4164C22.0719 11.4164 26.0714 14.5811 26.0714 18.9494C26.0714 19.5992 25.5447 20.1259 24.8949 20.1259C24.2452 20.1259 23.7185 19.5992 23.7185 18.9494C23.7185 16.1859 21.1003 13.7693 17.647 13.7693Z" fill="#0066B3"/>
<path fill-rule="evenodd" clip-rule="evenodd" d="M27.4156 6.48249C26.307 6.48249 25.4408 7.36187 25.4408 8.40679C25.4408 9.45172 26.307 10.3311 27.4156 10.3311C28.5243 10.3311 29.3904 9.45172 29.3904 8.40679C29.3904 7.36187 28.5243 6.48249 27.4156 6.48249ZM23.0879 8.40679C23.0879 6.02669 25.0435 4.12955 27.4156 4.12955C29.7878 4.12955 31.7434 6.02669 31.7434 8.40679C31.7434 10.7869 29.7878 12.684 27.4156 12.684C25.0435 12.684 23.0879 10.7869 23.0879 8.40679Z" fill="#0066B3"/>
<path fill-rule="evenodd" clip-rule="evenodd" d="M27.4159 15.9398C26.3451 15.9398 25.285 16.2037 24.3685 16.719C23.8022 17.0375 23.0849 16.8365 22.7664 16.2702C22.448 15.7038 22.649 14.9865 23.2153 14.6681C24.5047 13.9431 25.9656 13.5869 27.4159 13.5869C30.8665 13.5869 33.9193 15.7377 34.7011 18.8147C34.8611 19.4444 34.4803 20.0847 33.8505 20.2447C33.2208 20.4047 32.5806 20.0239 32.4206 19.3941C31.9418 17.5099 29.9526 15.9398 27.4159 15.9398Z" fill="#0066B3"/>
<path fill-rule="evenodd" clip-rule="evenodd" d="M7.71836 6.48249C6.60972 6.48249 5.74357 7.36187 5.74357 8.40679C5.74357 9.45172 6.60972 10.3311 7.71836 10.3311C8.82699 10.3311 9.69315 9.45172 9.69315 8.40679C9.69315 7.36187 8.82699 6.48249 7.71836 6.48249ZM3.39062 8.40679C3.39062 6.0267 5.3462 4.12955 7.71836 4.12955C10.0905 4.12955 12.0461 6.0267 12.0461 8.40679C12.0461 10.7869 10.0905 12.684 7.71836 12.684C5.3462 12.684 3.39062 10.7869 3.39062 8.40679Z" fill="#0066B3"/>
<path fill-rule="evenodd" clip-rule="evenodd" d="M7.72015 15.7849C5.1834 15.7849 3.19416 17.3549 2.71543 19.2392C2.55544 19.8689 1.91523 20.2497 1.28549 20.0897C0.655748 19.9297 0.274948 19.2895 0.434946 18.6598C1.21672 15.5828 4.26951 13.4319 7.72015 13.4319C9.1704 13.4319 10.6313 13.7882 11.9207 14.5131C12.4871 14.8316 12.688 15.5489 12.3696 16.1152C12.0511 16.6816 11.3339 16.8825 10.7675 16.5641C9.85097 16.0488 8.7909 15.7849 7.72015 15.7849Z" fill="#0066B3"/>
</svg>
